<svg xmlns="http://www.w3.org/2000/svg" fill="none" viewBox="0 0 1500 1500"><defs><clipPath id="a" class="frame-clip frame-clip-def"><rect width="1500" height="1500" rx="0" ry="0"/></clipPath></defs><g class="frame-container-wrapper"><g class="frame-container-blur"><g class="frame-container-shadows" clip-path="url(#a)"><g class="fills"><rect width="1500" height="1500" class="frame-background" rx="0" ry="0"/></g><g class="frame-children"><defs><linearGradient id="b" x1="1.008" x2="-.011" y1=".439" y2=".515"><stop offset="0" stop-color="#067400"/><stop offset="1" stop-color="#e9b435"/></linearGradient><pattern id="c" width="1000" height="1000" x="250" y="270" patternUnits="userSpaceOnUse"><path fill="url(#b)" d="M0 0h1000v1000H0z"/></pattern></defs><rect width="1000" height="1000" x="250" y="270" fill="url(#c)" class="fills" rx="128" ry="128" transform="rotate(45 750 770)"/><defs><linearGradient id="d" x1="1.027" x2="-.137" y1=".67" y2=".309"><stop offset="0" stop-color="#23d53c"/><stop offset="1" stop-color="#e9b435"/></linearGradient><pattern id="e" width="1000" height="1000" x="250" y="250" patternUnits="userSpaceOnUse"><path fill="url(#d)" d="M0 0h1000v1000H0z"/></pattern></defs><rect width="1000" height="1000" x="250" y="250" fill="url(#e)" class="fills" rx="128" ry="128" transform="rotate(45 750 750)"/><defs><radialGradient id="f" cx=".5" cy=".5" r=".562" gradientTransform="rotate(180.034 .5 .5)"><stop offset="0" stop-color="#d6b736"/><stop offset="1" stop-color="#d6b736" stop-opacity="0"/></radialGradient><pattern id="g" width="543" height="540" x="351.332" y="630.343" patternUnits="userSpaceOnUse"><path fill="url(#f)" d="M0 0h543v540H0z"/></pattern></defs><ellipse cx="622.832" cy="900.343" fill="url(#g)" class="fills" rx="271.5" ry="270" transform="rotate(31.673 622.832 900.343)"/><defs><radialGradient id="h" cx=".5" cy=".5" r=".562" gradientTransform="rotate(180.034 .5 .5)"><stop offset="0" stop-color="#d6b736"/><stop offset="1" stop-color="#d6b736" stop-opacity="0"/></radialGradient><pattern id="i" width="338" height="345" x="353.404" y="408.045" patternUnits="userSpaceOnUse"><path fill="url(#h)" d="M0 0h338v345H0z"/></pattern></defs><ellipse cx="522.404" cy="580.545" fill="url(#i)" class="fills" rx="169" ry="172.5" transform="rotate(31.673 522.404 580.545)"/><defs><radialGradient id="j" cx=".5" cy=".5" r=".562" gradientTransform="rotate(180.034 .5 .5)"><stop offset="0" stop-color="#d6b736"/><stop offset="1" stop-color="#d6b736" stop-opacity="0"/></radialGradient><pattern id="k" width="502" height="512" x="186.034" y="526.664" patternUnits="userSpaceOnUse"><path fill="url(#j)" d="M0 0h502v512H0z"/></pattern></defs><ellipse cx="437.034" cy="782.664" fill="url(#k)" class="fills" rx="251" ry="256" transform="rotate(31.673 437.034 782.664)"/><path fill="#fff" fill-opacity=".2" d="M1038 390 639 783l-3 126h132l398-392z" class="fills"/><defs><linearGradient id="l" x1=".293" x2=".523" y1=".046" y2="1.078"><stop offset=".36" stop-color="#23d53c"/><stop offset="1" stop-color="#e9b435"/></linearGradient><pattern id="n" width="299.925" height="324.375" x="636.078" y="584.625" patternUnits="userSpaceOnUse"><path fill="url(#l)" d="M0 0h299.925v324.375H0z"/></pattern><filter id="m" width="1.22" height="1.203" x="-.09" y="-.083" color-interpolation-filters="sRGB" filterUnits="objectBoundingBox"><feFlood flood-opacity="0" result="BackgroundImageFix"/><feColorMatrix in="SourceAlpha" values="0 0 0 0 0 0 0 0 0 0 0 0 0 0 0 0 0 0 127 0"/><feOffset dx="4" dy="4"/><feGaussianBlur stdDeviation="2"/><feColorMatrix values="0 0 0 0 0 0 0 0 0 0 0 0 0 0 0 0 0 0 0.2 0"/><feBlend in2="BackgroundImageFix" result="filter_379da60c-ccbe-80f9-8008-02e27edfae85"/><feBlend in="SourceGraphic" in2="filter_379da60c-ccbe-80f9-8008-02e27edfae85" result="shape"/><feColorMatrix in="SourceAlpha" result="hardAlpha" values="0 0 0 0 0 0 0 0 0 0 0 0 0 0 0 0 0 0 127 0"/><feMorphology in="SourceAlpha" radius="3" result="filter_379da60c-ccbe-80f9-8008-02e2237a6ff9"/><feOffset dx="-16" dy="-16"/><feGaussianBlur stdDeviation="6"/><feComposite in2="hardAlpha" k2="-1" k3="1" operator="arithmetic"/><feColorMatrix values="0 0 0 0 0.28627450980392155 0 0 0 0 0.4549019607843137 0 0 0 0 0.26666666666666666 0 0 0 0.15 0"/><feBlend in2="shape" result="filter_379da60c-ccbe-80f9-8008-02e2237a6ff9"/></filter></defs><path fill="url(#n)" d="M778.637 898.523q.58-1 1.134-2.02.415.046.83.086l155.402-153.06a63.9 63.9 0 0 0-5.1-20.228c-14.083-32.394-51.816-47.26-84.21-33.177-17.794 7.736-30.3 22.608-35.634 39.771A85 85 0 0 0 789 727c-21.669 0-41.455 8.126-56.419 21.462-16.308-8.054-35.919-9.15-53.888-1.338a65 65 0 0 0-6.72 3.4l-22.53 22.19a64.4 64.4 0 0 0-9.046 28.154 32 32 0 0 0-1.875 2.183l-2.444 102.68a85 85 0 0 0 2.485 3.269H768zm90.047-310.575c20.246-8.802 43.829.49 52.63 20.735 8.802 20.247-.489 43.83-20.736 52.632-20.245 8.801-43.829-.49-52.63-20.736s.49-43.83 20.736-52.631" class="fills" filter="url(#m)"/><path d="M1064.204 357.448 636.7 784.65S634 854.83 634 895.336c0 17.812 0 17.812 17.684 17.633 41.396-.421 112.145-2.327 112.145-2.327l429.121-428.815" class="fills"/><g class="strokes"><path stroke="#fff" stroke-linecap="round" stroke-width="32" d="M1064.204 357.448 636.7 784.65S634 854.83 634 895.336c0 17.812 0 17.812 17.684 17.633 41.396-.421 112.145-2.327 112.145-2.327l429.121-428.815" class="stroke-shape"/></g><defs><radialGradient id="o" cx=".389" cy=".261" r=".747" gradientTransform="rotate(171.484 .39 .261)"><stop offset="0" stop-color="#7a7f8c"/><stop offset="1" stop-color="#5f636d"/></radialGradient><pattern id="q" width="245" height="245" x="1108" y="184" patternUnits="userSpaceOnUse"><path fill="url(#o)" d="M0 0h245v245H0z"/></pattern><filter id="p" width="1.147" height="1.22" x="-.073" y="-.073" color-interpolation-filters="sRGB" filterUnits="objectBoundingBox"><feFlood flood-opacity="0" result="BackgroundImageFix"/><feColorMatrix in="SourceAlpha" values="0 0 0 0 0 0 0 0 0 0 0 0 0 0 0 0 0 0 127 0"/><feMorphology in="SourceAlpha" operator="dilate" radius="1" result="filter_379da60c-ccbe-80f9-8008-02e00f319c3e"/><feOffset dy="6"/><feGaussianBlur/><feColorMatrix values="0 0 0 0 0.2784313725490196 0 0 0 0 0.2901960784313726 0 0 0 0 0.3176470588235294 0 0 0 1 0"/><feBlend in2="BackgroundImageFix" result="filter_379da60c-ccbe-80f9-8008-02e00f319c3e"/><feBlend in="SourceGraphic" in2="filter_379da60c-ccbe-80f9-8008-02e00f319c3e" result="shape"/></filter></defs><circle cx="1230.5" cy="306.5" r="122.5" fill="url(#q)" class="fills" filter="url(#p)"/><defs><linearGradient id="r" x1="0" x2="1" y1=".5" y2=".5"><stop offset="0" stop-color="#7a7f8c"/><stop offset="1" stop-color="#5f636d"/></linearGradient><pattern id="s" width="342" height="103" x="949.331" y="365.831" patternUnits="userSpaceOnUse"><path fill="url(#r)" d="M0 0h342v103H0z"/></pattern><filter id="t" width="1.175" height="1.524" x="-.061" y="-.204" color-interpolation-filters="sRGB" filterUnits="objectBoundingBox"><feFlood flood-opacity="0" result="BackgroundImageFix"/><feColorMatrix in="SourceAlpha" values="0 0 0 0 0 0 0 0 0 0 0 0 0 0 0 0 0 0 127 0"/><feMorphology in="SourceAlpha" operator="dilate" radius="2" result="filter_379da60c-ccbe-80f9-8008-02dfbd011d76"/><feOffset dx="6" dy="4"/><feGaussianBlur/><feColorMatrix values="0 0 0 0 0.2784313725490196 0 0 0 0 0.2901960784313726 0 0 0 0 0.3176470588235294 0 0 0 1 0"/><feBlend in2="BackgroundImageFix" result="filter_379da60c-ccbe-80f9-8008-02dfbd011d76"/><feBlend in="SourceGraphic" in2="filter_379da60c-ccbe-80f9-8008-02dfbd011d76" result="shape"/></filter></defs><rect width="342" height="103" x="949.331" y="365.831" fill="url(#s)" class="fills" filter="url(#t)" rx="36" ry="36" transform="rotate(45 1120.331 417.331)"/></g></g></g></g></svg>